<svg width="56" height="56" viewBox="0 0 56 56" fill="none" xmlns="http://www.w3.org/2000/svg">
  <rect width="56" height="56" rx="16" fill="#137a6b"/>
  <path d="M28 14L8 22L28 30L48 22L28 14Z" fill="white" fill-opacity="0.3"/>
  <path d="M28 34V30M8 22V34C8 38 12 42 28 46C44 42 48 38 48 34V22" stroke="white" stroke-width="2.5" stroke-linecap="round" stroke-linejoin="round"/>
  <path d="M28 14L8 22L28 30L48 22L28 14Z" stroke="white" stroke-width="2.5" stroke-linecap="round" stroke-linejoin="round"/>
  <path d="M48 22V34" stroke="white" stroke-width="2.5" stroke-linecap="round"/>
  <path d="M48 34L52 36M52 36V44M52 36L48 34" stroke="white" stroke-width="2.5" stroke-linecap="round" stroke-linejoin="round"/>
  <circle cx="52" cy="45" r="3" fill="white"/>
</svg>